<?xml version="1.0" encoding="utf-8"?>
<svg viewBox="20.95 111.195 300.87 148.312" xmlns="http://www.w3.org/2000/svg">
  <defs>
    <clipPath id="b07c6fc1ff">
      <path d="M 89.632812 198.128906 L 172.882812 198.128906 L 172.882812 237 L 89.632812 237 Z M 89.632812 198.128906 " clip-rule="nonzero"/>
    </clipPath>
  </defs>
  <g clip-path="url(#b07c6fc1ff)" style="" transform="matrix(3.0202279090881348, 0, 0, 3.0202279090881348, -231.5637969970703, -479.39129638671875)">
    <path fill="#f8e8db" d="M 91.15625 198.132812 L 171.253906 198.132812 C 171.457031 198.132812 171.652344 198.171875 171.839844 198.246094 C 172.023438 198.324219 172.1875 198.433594 172.332031 198.578125 C 172.472656 198.71875 172.585938 198.882812 172.660156 199.070312 C 172.738281 199.257812 172.777344 199.449219 172.777344 199.652344 L 172.777344 235.394531 C 172.777344 235.597656 172.738281 235.792969 172.660156 235.976562 C 172.585938 236.164062 172.472656 236.328125 172.332031 236.472656 C 172.1875 236.613281 172.023438 236.722656 171.839844 236.800781 C 171.652344 236.878906 171.457031 236.917969 171.253906 236.917969 L 91.15625 236.917969 C 90.953125 236.917969 90.757812 236.878906 90.574219 236.800781 C 90.386719 236.722656 90.222656 236.613281 90.078125 236.472656 C 89.9375 236.328125 89.828125 236.164062 89.75 235.976562 C 89.671875 235.792969 89.632812 235.597656 89.632812 235.394531 L 89.632812 199.652344 C 89.632812 199.449219 89.671875 199.257812 89.75 199.070312 C 89.828125 198.882812 89.9375 198.71875 90.078125 198.578125 C 90.222656 198.433594 90.386719 198.324219 90.574219 198.246094 C 90.757812 198.171875 90.953125 198.132812 91.15625 198.132812 Z M 91.15625 198.132812 " fill-opacity="1" fill-rule="nonzero"/>
  </g>
  <path fill="#f34f3a" d="M 50.049 126.319 L 65.008 126.319 C 65.694 126.319 66.282 126.565 66.768 127.048 C 67.251 127.534 67.497 128.122 67.497 128.818 L 67.497 145.252 C 67.497 145.938 67.251 146.527 66.768 147.022 C 66.282 147.507 65.694 147.754 65.008 147.754 L 50.049 147.754 C 49.353 147.754 48.774 147.507 48.279 147.022 C 47.796 146.527 47.547 145.938 47.547 145.252 L 47.547 128.818 C 47.547 128.122 47.796 127.534 48.279 127.048 C 48.774 126.565 49.353 126.319 50.049 126.319 Z M 50.049 126.319" fill-opacity="1" fill-rule="nonzero" style=""/>
  <path fill="#f34f3a" d="M 61.765 153.288 L 76.723 153.288 C 77.407 153.288 77.998 153.536 78.481 154.019 C 78.976 154.502 79.213 155.093 79.213 155.789 L 79.213 172.223 C 79.213 172.919 78.976 173.498 78.481 173.993 C 77.998 174.476 77.407 174.725 76.723 174.725 L 61.765 174.725 C 61.069 174.725 60.49 174.476 59.995 173.993 C 59.512 173.498 59.263 172.919 59.263 172.223 L 59.263 155.789 C 59.263 155.093 59.512 154.502 59.995 154.019 C 60.49 153.536 61.069 153.288 61.765 153.288 Z M 61.765 153.288" fill-opacity="1" fill-rule="nonzero" style=""/>
  <path fill="#f34f3a" d="M 85.512 153.288 L 100.473 153.288 C 101.157 153.288 101.748 153.536 102.231 154.019 C 102.714 154.502 102.963 155.093 102.963 155.789 L 102.963 172.223 C 102.963 172.919 102.714 173.498 102.231 173.993 C 101.748 174.476 101.157 174.725 100.473 174.725 L 85.512 174.725 C 84.816 174.725 84.228 174.476 83.742 173.993 C 83.259 173.498 83.013 172.919 83.013 172.223 L 83.013 155.789 C 83.013 155.093 83.259 154.502 83.742 154.019 C 84.228 153.536 84.816 153.288 85.512 153.288 Z M 85.512 153.288" fill-opacity="1" fill-rule="nonzero" style=""/>
  <path fill="#f34f3a" d="M 109.262 153.288 L 124.209 153.288 C 124.905 153.288 125.495 153.536 125.978 154.019 C 126.464 154.502 126.71 155.093 126.71 155.789 L 126.71 172.223 C 126.71 172.919 126.464 173.498 125.978 173.993 C 125.495 174.476 124.905 174.725 124.209 174.725 L 109.262 174.725 C 108.566 174.725 107.975 174.476 107.492 173.993 C 107.009 173.498 106.76 172.919 106.76 172.223 L 106.76 155.789 C 106.76 155.093 107.009 154.502 107.492 154.019 C 107.975 153.536 108.566 153.288 109.262 153.288 Z M 109.262 153.288" fill-opacity="1" fill-rule="nonzero" style=""/>
  <path fill="#f34f3a" d="M 133.012 153.288 L 147.959 153.288 C 148.655 153.288 149.245 153.536 149.728 154.019 C 150.211 154.502 150.46 155.093 150.46 155.789 L 150.46 172.223 C 150.46 172.919 150.211 173.498 149.728 173.993 C 149.245 174.476 148.655 174.725 147.959 174.725 L 133.012 174.725 C 132.316 174.725 131.725 174.476 131.242 173.993 C 130.757 173.498 130.51 172.919 130.51 172.223 L 130.51 155.789 C 130.51 155.093 130.757 154.502 131.242 154.019 C 131.725 153.536 132.316 153.288 133.012 153.288 Z M 133.012 153.288" fill-opacity="1" fill-rule="nonzero" style=""/>
  <path fill="#f34f3a" d="M 156.747 153.288 L 171.708 153.288 C 173.088 153.288 174.208 154.409 174.208 155.789 L 174.208 172.223 C 174.208 173.603 173.088 174.725 171.708 174.725 L 156.747 174.725 C 155.379 174.725 154.258 173.603 154.258 172.223 L 154.258 155.789 C 154.258 154.409 155.379 153.288 156.747 153.288 Z M 156.747 153.288" fill-opacity="1" fill-rule="nonzero" style=""/>
  <path fill="#f34f3a" d="M 180.497 153.288 L 195.456 153.288 C 196.152 153.288 196.731 153.536 197.226 154.019 C 197.709 154.502 197.957 155.093 197.957 155.789 L 197.957 172.223 C 197.957 172.919 197.709 173.498 197.226 173.993 C 196.731 174.476 196.152 174.725 195.456 174.725 L 180.497 174.725 C 179.813 174.725 179.223 174.476 178.739 173.993 C 178.256 173.498 178.008 172.919 178.008 172.223 L 178.008 155.789 C 178.008 155.093 178.256 154.502 178.739 154.019 C 179.223 153.536 179.813 153.288 180.497 153.288 Z M 180.497 153.288" fill-opacity="1" fill-rule="nonzero" style=""/>
  <path fill="#f34f3a" d="M 204.245 153.288 L 219.206 153.288 C 219.902 153.288 220.48 153.536 220.976 154.019 C 221.459 154.502 221.707 155.093 221.707 155.789 L 221.707 172.223 C 221.707 172.919 221.459 173.498 220.976 173.993 C 220.48 174.476 219.902 174.725 219.206 174.725 L 204.245 174.725 C 203.561 174.725 202.972 174.476 202.487 173.993 C 201.992 173.498 201.758 172.919 201.758 172.223 L 201.758 155.789 C 201.758 155.093 201.992 154.502 202.487 154.019 C 202.972 153.536 203.561 153.288 204.245 153.288 Z M 204.245 153.288" fill-opacity="1" fill-rule="nonzero" style=""/>
  <path fill="#f34f3a" d="M 227.995 153.288 L 242.953 153.288 C 243.64 153.288 244.228 153.536 244.723 154.019 C 245.208 154.502 245.455 155.093 245.455 155.789 L 245.455 172.223 C 245.455 172.919 245.208 173.498 244.723 173.993 C 244.228 174.476 243.64 174.725 242.953 174.725 L 227.995 174.725 C 227.311 174.725 226.72 174.476 226.237 173.993 C 225.742 173.498 225.505 172.919 225.505 172.223 L 225.505 155.789 C 225.505 155.093 225.742 154.502 226.237 154.019 C 226.72 153.536 227.311 153.288 227.995 153.288 Z M 227.995 153.288" fill-opacity="1" fill-rule="nonzero" style=""/>
  <path fill="#f34f3a" d="M 251.744 153.288 L 266.703 153.288 C 267.387 153.288 267.978 153.536 268.473 154.019 C 268.956 154.502 269.193 155.093 269.193 155.789 L 269.193 172.223 C 269.193 172.919 268.956 173.498 268.473 173.993 C 267.978 174.476 267.387 174.725 266.703 174.725 L 251.744 174.725 C 251.06 174.725 250.47 174.476 249.987 173.993 C 249.489 173.498 249.255 172.919 249.255 172.223 L 249.255 155.789 C 249.255 155.093 249.489 154.502 249.987 154.019 C 250.47 153.536 251.06 153.288 251.744 153.288 Z M 251.744 153.288" fill-opacity="1" fill-rule="nonzero" style=""/>
  <path fill="#f34f3a" d="M 83.013 180.01 L 97.972 180.01 C 98.656 180.01 99.246 180.244 99.73 180.742 C 100.225 181.225 100.461 181.813 100.461 182.5 L 100.461 198.946 C 100.461 199.63 100.225 200.218 99.73 200.704 C 99.246 201.199 98.656 201.433 97.972 201.433 L 83.013 201.433 C 82.317 201.433 81.738 201.199 81.243 200.704 C 80.758 200.218 80.512 199.63 80.512 198.946 L 80.512 182.5 C 80.512 181.813 80.758 181.225 81.243 180.742 C 81.738 180.244 82.317 180.01 83.013 180.01 Z M 83.013 180.01" fill-opacity="1" fill-rule="nonzero" style=""/>
  <path fill="#f34f3a" d="M 50.049 180.01 L 74.506 180.01 C 75.19 180.01 75.781 180.244 76.264 180.742 C 76.759 181.225 76.996 181.813 76.996 182.5 L 76.996 198.946 C 76.996 199.63 76.759 200.218 76.264 200.704 C 75.781 201.199 75.19 201.433 74.506 201.433 L 50.049 201.433 C 49.353 201.433 48.774 201.199 48.279 200.704 C 47.796 200.218 47.547 199.63 47.547 198.946 L 47.547 182.5 C 47.547 181.813 47.796 181.225 48.279 180.742 C 48.774 180.244 49.353 180.01 50.049 180.01 Z M 50.049 180.01" fill-opacity="1" fill-rule="nonzero" style=""/>
  <path fill="#f34f3a" d="M 50.049 205.41 L 71.297 205.41 C 71.993 205.41 72.572 205.659 73.067 206.142 C 73.55 206.625 73.799 207.216 73.799 207.9 L 73.799 224.346 C 73.799 225.03 73.55 225.62 73.067 226.104 C 72.572 226.599 71.993 226.835 71.297 226.835 L 50.049 226.835 C 49.353 226.835 48.774 226.599 48.279 226.104 C 47.796 225.62 47.547 225.03 47.547 224.346 L 47.547 207.9 C 47.547 207.216 47.796 206.625 48.279 206.142 C 48.774 205.659 49.353 205.41 50.049 205.41 Z M 50.049 205.41" fill-opacity="1" fill-rule="nonzero" style=""/>
  <path fill="#f34f3a" d="M 79.213 205.41 L 100.473 205.41 C 101.157 205.41 101.748 205.659 102.231 206.142 C 102.714 206.625 102.963 207.216 102.963 207.9 L 102.963 224.346 C 102.963 225.03 102.714 225.62 102.231 226.104 C 101.748 226.599 101.157 226.835 100.473 226.835 L 79.213 226.835 C 78.529 226.835 77.938 226.599 77.455 226.104 C 76.96 225.62 76.723 225.03 76.723 224.346 L 76.723 207.9 C 76.723 207.216 76.96 206.625 77.455 206.142 C 77.938 205.659 78.529 205.41 79.213 205.41 Z M 79.213 205.41" fill-opacity="1" fill-rule="nonzero" style=""/>
  <path fill="#f34f3a" d="M 248.76 180.01 L 278.56 180.01 C 279.94 180.01 281.05 181.129 281.05 182.5 L 281.05 198.946 C 281.05 200.314 279.94 201.433 278.56 201.433 L 248.76 201.433 C 247.378 201.433 246.258 200.314 246.258 198.946 L 246.258 182.5 C 246.258 181.129 247.378 180.01 248.76 180.01 Z M 248.76 180.01" fill-opacity="1" fill-rule="nonzero" style=""/>
  <path fill="#f34f3a" d="M 106.76 180.01 L 121.722 180.01 C 123.09 180.01 124.209 181.129 124.209 182.5 L 124.209 198.946 C 124.209 200.314 123.09 201.433 121.722 201.433 L 106.76 201.433 C 105.381 201.433 104.259 200.314 104.259 198.946 L 104.259 182.5 C 104.259 181.129 105.381 180.01 106.76 180.01 Z M 106.76 180.01" fill-opacity="1" fill-rule="nonzero" style=""/>
  <path fill="#f34f3a" d="M 109.262 205.41 L 124.209 205.41 C 124.905 205.41 125.495 205.659 125.978 206.142 C 126.464 206.625 126.71 207.216 126.71 207.9 L 126.71 224.346 C 126.71 225.03 126.464 225.62 125.978 226.104 C 125.495 226.599 124.905 226.835 124.209 226.835 L 109.262 226.835 C 108.566 226.835 107.975 226.599 107.492 226.104 C 107.009 225.62 106.76 225.03 106.76 224.346 L 106.76 207.9 C 106.76 207.216 107.009 206.625 107.492 206.142 C 107.975 205.659 108.566 205.41 109.262 205.41 Z M 109.262 205.41" fill-opacity="1" fill-rule="nonzero" style=""/>
  <path fill="#f34f3a" d="M 130.51 180.01 L 145.469 180.01 C 146.153 180.01 146.744 180.244 147.227 180.742 C 147.71 181.225 147.959 181.813 147.959 182.5 L 147.959 198.946 C 147.959 199.63 147.71 200.218 147.227 200.704 C 146.744 201.199 146.153 201.433 145.469 201.433 L 130.51 201.433 C 129.814 201.433 129.224 201.199 128.741 200.704 C 128.258 200.218 128.009 199.63 128.009 198.946 L 128.009 182.5 C 128.009 181.813 128.258 181.225 128.741 180.742 C 129.224 180.244 129.814 180.01 130.51 180.01 Z M 130.51 180.01" fill-opacity="1" fill-rule="nonzero" style=""/>
  <path fill="#f34f3a" d="M 133.012 205.41 L 219.206 205.41 C 219.89 205.41 220.48 205.659 220.976 206.142 C 221.459 206.625 221.707 207.216 221.707 207.9 L 221.707 224.346 C 221.707 225.03 221.459 225.62 220.976 226.104 C 220.48 226.599 219.89 226.835 219.206 226.835 L 133.012 226.835 C 132.316 226.835 131.725 226.599 131.242 226.104 C 130.757 225.62 130.51 225.03 130.51 224.346 L 130.51 207.9 C 130.51 207.216 130.757 206.625 131.242 206.142 C 131.725 205.659 132.316 205.41 133.012 205.41 Z M 133.012 205.41" fill-opacity="1" fill-rule="nonzero" style=""/>
  <path fill="#f34f3a" d="M 154.258 180.01 L 169.207 180.01 C 169.903 180.01 170.491 180.244 170.977 180.742 C 171.46 181.225 171.708 181.813 171.708 182.5 L 171.708 198.946 C 171.708 199.63 171.46 200.218 170.977 200.704 C 170.491 201.199 169.903 201.433 169.207 201.433 L 154.258 201.433 C 153.562 201.433 152.974 201.199 152.488 200.704 C 152.005 200.218 151.759 199.63 151.759 198.946 L 151.759 182.5 C 151.759 181.813 152.005 181.225 152.488 180.742 C 152.974 180.244 153.562 180.01 154.258 180.01 Z M 154.258 180.01" fill-opacity="1" fill-rule="nonzero" style=""/>
  <path fill="#f34f3a" d="M 177.996 180.01 L 192.954 180.01 C 193.65 180.01 194.241 180.244 194.724 180.742 C 195.21 181.225 195.456 181.813 195.456 182.5 L 195.456 198.946 C 195.456 199.63 195.21 200.218 194.724 200.704 C 194.241 201.199 193.65 201.433 192.954 201.433 L 177.996 201.433 C 177.312 201.433 176.721 201.199 176.238 200.704 C 175.755 200.218 175.506 199.63 175.506 198.946 L 175.506 182.5 C 175.506 181.813 175.755 181.225 176.238 180.742 C 176.721 180.244 177.312 180.01 177.996 180.01 Z M 177.996 180.01" fill-opacity="1" fill-rule="nonzero" style=""/>
  <path fill="#f34f3a" d="M 201.746 180.01 L 216.704 180.01 C 218.084 180.01 219.206 181.129 219.206 182.5 L 219.206 198.946 C 219.206 200.314 218.084 201.433 216.704 201.433 L 201.746 201.433 C 200.375 201.433 199.256 200.314 199.256 198.946 L 199.256 182.5 C 199.256 181.129 200.375 180.01 201.746 180.01 Z M 201.746 180.01" fill-opacity="1" fill-rule="nonzero" style=""/>
  <path fill="#f34f3a" d="M 225.493 180.01 L 240.454 180.01 C 241.15 180.01 241.726 180.244 242.224 180.742 C 242.707 181.225 242.953 181.813 242.953 182.5 L 242.953 198.946 C 242.953 199.63 242.707 200.218 242.224 200.704 C 241.726 201.199 241.15 201.433 240.454 201.433 L 225.493 201.433 C 224.809 201.433 224.218 201.199 223.735 200.704 C 223.24 200.218 223.003 199.63 223.003 198.946 L 223.003 182.5 C 223.003 181.813 223.24 181.225 223.735 180.742 C 224.218 180.244 224.809 180.01 225.493 180.01 Z M 225.493 180.01" fill-opacity="1" fill-rule="nonzero" style=""/>
  <path fill="#f34f3a" d="M 227.995 205.836 L 278.737 205.836 C 280.117 205.836 281.227 206.955 281.227 208.323 L 281.227 224.769 C 281.227 226.139 280.117 227.259 278.737 227.259 L 227.995 227.259 C 226.615 227.259 225.505 226.139 225.505 224.769 L 225.505 208.323 C 225.505 206.955 226.615 205.836 227.995 205.836 Z M 227.995 205.836" fill-opacity="1" fill-rule="nonzero" style=""/>
  <path fill="#f34f3a" d="M 73.799 126.319 L 88.745 126.319 C 89.441 126.319 90.032 126.565 90.515 127.048 C 90.998 127.534 91.247 128.122 91.247 128.818 L 91.247 145.252 C 91.247 145.938 90.998 146.527 90.515 147.022 C 90.032 147.507 89.441 147.754 88.745 147.754 L 73.799 147.754 C 73.103 147.754 72.512 147.507 72.029 147.022 C 71.543 146.527 71.297 145.938 71.297 145.252 L 71.297 128.818 C 71.297 128.122 71.543 127.534 72.029 127.048 C 72.512 126.565 73.103 126.319 73.799 126.319 Z M 73.799 126.319" fill-opacity="1" fill-rule="nonzero" style=""/>
  <path fill="#f34f3a" d="M 97.546 126.319 L 112.495 126.319 C 113.191 126.319 113.779 126.565 114.265 127.048 C 114.748 127.534 114.997 128.122 114.997 128.818 L 114.997 145.252 C 114.997 145.938 114.748 146.527 114.265 147.022 C 113.779 147.507 113.191 147.754 112.495 147.754 L 97.546 147.754 C 96.85 147.754 96.262 147.507 95.776 147.022 C 95.293 146.527 95.045 145.938 95.045 145.252 L 95.045 128.818 C 95.045 128.122 95.293 127.534 95.776 127.048 C 96.262 126.565 96.85 126.319 97.546 126.319 Z M 97.546 126.319" fill-opacity="1" fill-rule="nonzero" style=""/>
  <path fill="#f34f3a" d="M 121.296 126.319 L 136.243 126.319 C 136.939 126.319 137.529 126.565 138.012 127.048 C 138.498 127.534 138.744 128.122 138.744 128.818 L 138.744 145.252 C 138.744 145.938 138.498 146.527 138.012 147.022 C 137.529 147.507 136.939 147.754 136.243 147.754 L 121.296 147.754 C 120.6 147.754 120.009 147.507 119.526 147.022 C 119.043 146.527 118.794 145.938 118.794 145.252 L 118.794 128.818 C 118.794 128.122 119.043 127.534 119.526 127.048 C 120.009 126.565 120.6 126.319 121.296 126.319 Z M 121.296 126.319" fill-opacity="1" fill-rule="nonzero" style=""/>
  <path fill="#f34f3a" d="M 145.034 126.319 L 159.993 126.319 C 160.689 126.319 161.279 126.565 161.762 127.048 C 162.245 127.534 162.494 128.122 162.494 128.818 L 162.494 145.252 C 162.494 145.938 162.245 146.527 161.762 147.022 C 161.279 147.507 160.689 147.754 159.993 147.754 L 145.034 147.754 C 144.347 147.754 143.759 147.507 143.276 147.022 C 142.791 146.527 142.544 145.938 142.544 145.252 L 142.544 128.818 C 142.544 128.122 142.791 127.534 143.276 127.048 C 143.759 126.565 144.347 126.319 145.034 126.319 Z M 145.034 126.319" fill-opacity="1" fill-rule="nonzero" style=""/>
  <path fill="#f34f3a" d="M 168.781 126.319 L 183.742 126.319 C 184.438 126.319 185.015 126.565 185.512 127.048 C 185.995 127.534 186.242 128.122 186.242 128.818 L 186.242 145.252 C 186.242 145.938 185.995 146.527 185.512 147.022 C 185.015 147.507 184.438 147.754 183.742 147.754 L 168.781 147.754 C 168.097 147.754 167.507 147.507 167.024 147.022 C 166.54 146.527 166.292 145.938 166.292 145.252 L 166.292 128.818 C 166.292 128.122 166.54 127.534 167.024 127.048 C 167.507 126.565 168.097 126.319 168.781 126.319 Z M 168.781 126.319" fill-opacity="1" fill-rule="nonzero" style=""/>
  <path fill="#f34f3a" d="M 192.531 126.319 L 207.49 126.319 C 208.87 126.319 209.991 127.438 209.991 128.818 L 209.991 145.252 C 209.991 146.634 208.87 147.754 207.49 147.754 L 192.531 147.754 C 191.163 147.754 190.042 146.634 190.042 145.252 L 190.042 128.818 C 190.042 127.438 191.163 126.319 192.531 126.319 Z M 192.531 126.319" fill-opacity="1" fill-rule="nonzero" style=""/>
  <path fill="#f34f3a" d="M 216.279 126.319 L 231.24 126.319 C 231.924 126.319 232.514 126.565 233.009 127.048 C 233.493 127.534 233.741 128.122 233.741 128.818 L 233.741 145.252 C 233.741 145.938 233.493 146.527 233.009 147.022 C 232.514 147.507 231.924 147.754 231.24 147.754 L 216.279 147.754 C 215.595 147.754 215.006 147.507 214.521 147.022 C 214.026 146.527 213.789 145.938 213.789 145.252 L 213.789 128.818 C 213.789 128.122 214.026 127.534 214.521 127.048 C 215.006 126.565 215.595 126.319 216.279 126.319 Z M 216.279 126.319" fill-opacity="1" fill-rule="nonzero" style=""/>
  <path fill="#f34f3a" d="M 240.028 126.319 L 254.987 126.319 C 255.671 126.319 256.262 126.565 256.757 127.048 C 257.242 127.534 257.477 128.122 257.477 128.818 L 257.477 145.252 C 257.477 145.938 257.242 146.527 256.757 147.022 C 256.262 147.507 255.671 147.754 254.987 147.754 L 240.028 147.754 C 239.345 147.754 238.754 147.507 238.271 147.022 C 237.776 146.527 237.539 145.938 237.539 145.252 L 237.539 128.818 C 237.539 128.122 237.776 127.534 238.271 127.048 C 238.754 126.565 239.345 126.319 240.028 126.319 Z M 240.028 126.319" fill-opacity="1" fill-rule="nonzero" style=""/>
  <path fill="#f34f3a" d="M 263.778 126.319 L 278.737 126.319 C 279.421 126.319 280.012 126.565 280.495 127.048 C 280.99 127.534 281.227 128.122 281.227 128.818 L 281.227 145.252 C 281.227 145.938 280.99 146.527 280.495 147.022 C 280.012 147.507 279.421 147.754 278.737 147.754 L 263.778 147.754 C 263.092 147.754 262.504 147.507 262.009 147.022 C 261.523 146.527 261.289 145.938 261.289 145.252 L 261.289 128.818 C 261.289 128.122 261.523 127.534 262.009 127.048 C 262.504 126.565 263.092 126.319 263.778 126.319 Z M 263.778 126.319" fill-opacity="1" fill-rule="nonzero" style=""/>
</svg>